<svg width="36" height="36" viewBox="0 0 36 36" fill="none" xmlns="http://www.w3.org/2000/svg">
<rect width="36" height="36" rx="10" fill="url(#paint0_linear_3009_10605)"/>
<path fill-rule="evenodd" clip-rule="evenodd" d="M20.8494 25.0229C20.8494 25.765 21.8118 26.0564 22.2235 25.4389L27.6721 17.266C28.0043 16.7676 27.647 16.1 27.048 16.1H22.7494V10.9771C22.7494 10.235 21.787 9.94363 21.3754 10.5611L15.9268 18.734C15.5945 19.2324 15.9518 19.9 16.5508 19.9H20.8494V25.0229Z" fill="white"/>
<path opacity="0.3" fill-rule="evenodd" clip-rule="evenodd" d="M9.4498 12.7746C9.4498 11.9876 10.0878 11.3496 10.8748 11.3496H15.6248C16.4118 11.3496 17.0498 11.9876 17.0498 12.7746C17.0498 13.5616 16.4118 14.1996 15.6248 14.1996H10.8748C10.0878 14.1996 9.4498 13.5616 9.4498 12.7746ZM9.4498 24.1746C9.4498 23.3876 10.0878 22.7496 10.8748 22.7496H15.6248C16.4118 22.7496 17.0498 23.3876 17.0498 24.1746C17.0498 24.9616 16.4118 25.5996 15.6248 25.5996H10.8748C10.0878 25.5996 9.4498 24.9616 9.4498 24.1746ZM8.9748 17.0496C8.1878 17.0496 7.5498 17.6876 7.5498 18.4746C7.5498 19.2616 8.1878 19.8996 8.97481 19.8996H12.7748C13.5618 19.8996 14.1998 19.2616 14.1998 18.4746C14.1998 17.6876 13.5618 17.0496 12.7748 17.0496H8.9748Z" fill="white"/>
<defs>
<linearGradient id="paint0_linear_3009_10605" x1="36" y1="0" x2="0" y2="36" gradientUnits="userSpaceOnUse">
<stop stop-color="#BB65FF"/>
<stop offset="1" stop-color="#4C6FFF"/>
</linearGradient>
</defs>
</svg>
