<svg width="124" height="15" viewBox="0 0 124 15" fill="none" xmlns="http://www.w3.org/2000/svg">
<path d="M118.896 14.9576C117.778 14.9576 116.817 14.7208 116.012 14.2473C115.212 13.7691 114.596 13.1062 114.166 12.2587C113.739 11.4112 113.526 10.4358 113.526 9.33256C113.526 8.21514 113.742 7.23503 114.173 6.39222C114.608 5.54468 115.226 4.88417 116.026 4.41069C116.827 3.93247 117.778 3.69336 118.881 3.69336C119.833 3.69336 120.667 3.86618 121.381 4.21182C122.096 4.55747 122.662 5.04279 123.079 5.66779C123.496 6.29279 123.725 7.02669 123.768 7.8695H120.913C120.832 7.32499 120.619 6.88701 120.274 6.55557C119.933 6.2194 119.485 6.05131 118.931 6.05131C118.462 6.05131 118.053 6.17915 117.703 6.43484C117.357 6.68578 117.087 7.05273 116.893 7.53569C116.699 8.01864 116.602 8.6034 116.602 9.28995C116.602 9.98597 116.696 10.5778 116.886 11.0655C117.08 11.5532 117.352 11.9249 117.703 12.1806C118.053 12.4363 118.462 12.5641 118.931 12.5641C119.277 12.5641 119.587 12.4931 119.862 12.351C120.141 12.209 120.371 12.003 120.551 11.7331C120.735 11.4585 120.856 11.1294 120.913 10.7459H123.768C123.72 11.5792 123.493 12.3132 123.086 12.9476C122.684 13.5774 122.127 14.0698 121.417 14.4249C120.707 14.78 119.866 14.9576 118.896 14.9576Z" fill="url(#paint0_linear_3009_13943)"/>
<path d="M111.543 0.199219V14.7447H108.518V0.199219H111.543Z" fill="url(#paint1_linear_3009_13943)"/>
<path d="M100.026 14.9505C99.3304 14.9505 98.7102 14.8297 98.1657 14.5882C97.6212 14.342 97.1903 13.9798 96.873 13.5016C96.5605 13.0186 96.4043 12.4173 96.4043 11.6976C96.4043 11.0916 96.5156 10.5826 96.7381 10.1706C96.9606 9.7587 97.2637 9.42726 97.6472 9.17631C98.0307 8.92537 98.4663 8.73597 98.954 8.60813C99.4464 8.48029 99.9625 8.39033 100.502 8.33825C101.137 8.27196 101.648 8.2104 102.036 8.15359C102.425 8.09203 102.706 8.00207 102.882 7.8837C103.057 7.76533 103.144 7.59014 103.144 7.35813V7.31552C103.144 6.86571 103.002 6.5177 102.718 6.27148C102.439 6.02527 102.041 5.90217 101.525 5.90217C100.981 5.90217 100.547 6.0229 100.225 6.26438C99.9033 6.50112 99.6903 6.79942 99.5861 7.15927L96.7878 6.932C96.9299 6.26912 97.2092 5.6962 97.6259 5.21325C98.0426 4.72556 98.58 4.3515 99.2381 4.09109C99.901 3.82593 100.668 3.69336 101.539 3.69336C102.145 3.69336 102.725 3.76438 103.279 3.90643C103.838 4.04847 104.333 4.26864 104.764 4.56694C105.199 4.86523 105.543 5.24876 105.794 5.71751C106.044 6.18152 106.17 6.73787 106.17 7.38654V14.7445H103.301V13.2317H103.215C103.04 13.5726 102.806 13.8733 102.512 14.1337C102.219 14.3894 101.866 14.5906 101.454 14.7374C101.042 14.8794 100.566 14.9505 100.026 14.9505ZM100.893 12.8624C101.338 12.8624 101.731 12.7748 102.072 12.5996C102.413 12.4197 102.68 12.1782 102.874 11.8752C103.069 11.5721 103.166 11.2289 103.166 10.8453V9.68768C103.071 9.74923 102.941 9.80605 102.775 9.85813C102.614 9.90548 102.432 9.95046 102.228 9.99307C102.025 10.031 101.821 10.0665 101.617 10.0996C101.414 10.128 101.229 10.1541 101.063 10.1777C100.708 10.2298 100.398 10.3127 100.133 10.4263C99.8678 10.5399 99.6619 10.6938 99.5151 10.888C99.3683 11.0774 99.2949 11.3141 99.2949 11.5982C99.2949 12.0101 99.4441 12.325 99.7424 12.5428C100.045 12.7559 100.429 12.8624 100.893 12.8624Z" fill="url(#paint2_linear_3009_13943)"/>
<path d="M94.7672 5.29119H91.6564C91.5996 4.88873 91.4836 4.53125 91.3084 4.21875C91.1332 3.90152 90.9083 3.63163 90.6337 3.40909C90.3591 3.18655 90.0418 3.0161 89.682 2.89773C89.3269 2.77936 88.941 2.72017 88.5243 2.72017C87.7715 2.72017 87.1157 2.9072 86.557 3.28125C85.9983 3.65057 85.565 4.19034 85.2573 4.90057C84.9495 5.60606 84.7956 6.46307 84.7956 7.47159C84.7956 8.50852 84.9495 9.37974 85.2573 10.0852C85.5698 10.7907 86.0054 11.3234 86.5641 11.6832C87.1228 12.0431 87.7691 12.223 88.503 12.223C88.915 12.223 89.2961 12.1686 89.6465 12.0597C90.0016 11.9508 90.3165 11.7921 90.5911 11.5838C90.8657 11.3707 91.093 11.1127 91.2729 10.8097C91.4576 10.5066 91.5854 10.161 91.6564 9.77273L94.7672 9.78693C94.6867 10.4545 94.4855 11.0985 94.1635 11.7188C93.8463 12.3343 93.4178 12.8859 92.878 13.3736C92.343 13.8565 91.7038 14.2401 90.9604 14.5241C90.2218 14.8035 89.3861 14.9432 88.4533 14.9432C87.156 14.9432 85.9959 14.6496 84.9732 14.0625C83.9552 13.4754 83.1503 12.6255 82.5584 11.5128C81.9713 10.4001 81.6777 9.05303 81.6777 7.47159C81.6777 5.88542 81.976 4.53599 82.5726 3.4233C83.1692 2.31061 83.9789 1.46307 85.0016 0.880683C86.0243 0.293561 87.1749 0 88.4533 0C89.2961 0 90.0774 0.118371 90.7971 0.355114C91.5215 0.591856 92.1631 0.9375 92.7218 1.39205C93.2805 1.84186 93.735 2.39347 94.0854 3.04688C94.4405 3.70028 94.6678 4.44839 94.7672 5.29119Z" fill="url(#paint3_linear_3009_13943)"/>
<path d="M73.6934 14.745V3.83594H76.6266V5.73935H76.7402C76.9391 5.06226 77.2729 4.5509 77.7417 4.20526C78.2104 3.85488 78.7502 3.67969 79.361 3.67969C79.5125 3.67969 79.6758 3.68916 79.851 3.7081C80.0262 3.72704 80.1801 3.75308 80.3127 3.78622V6.47088C80.1706 6.42827 79.9741 6.39039 79.7232 6.35724C79.4722 6.3241 79.2426 6.30753 79.0343 6.30753C78.5892 6.30753 78.1915 6.40459 77.8411 6.59872C77.4954 6.78812 77.2208 7.05327 77.0172 7.39418C76.8184 7.73508 76.7189 8.12808 76.7189 8.57315V14.745H73.6934Z" fill="url(#paint4_linear_3009_13943)"/>
<path d="M66.7117 14.9576C65.5896 14.9576 64.6237 14.7303 63.814 14.2757C63.0091 13.8165 62.3888 13.1678 61.9532 12.3297C61.5176 11.4869 61.2998 10.4902 61.2998 9.33967C61.2998 8.21751 61.5176 7.23266 61.9532 6.38512C62.3888 5.53758 63.002 4.87707 63.7927 4.40359C64.5882 3.9301 65.5209 3.69336 66.591 3.69336C67.3107 3.69336 67.9807 3.80936 68.6009 4.04137C69.2259 4.26864 69.7705 4.61192 70.2345 5.0712C70.7032 5.53048 71.0678 6.10813 71.3282 6.80415C71.5886 7.49544 71.7188 8.3051 71.7188 9.23313V10.0641H62.5072V8.1891H68.8708C68.8708 7.75349 68.7761 7.3676 68.5867 7.03143C68.3973 6.69525 68.1346 6.43247 67.7984 6.24307C67.4669 6.04895 67.0811 5.95188 66.6407 5.95188C66.1814 5.95188 65.7742 6.05842 65.4191 6.27148C65.0687 6.47982 64.7941 6.76154 64.5953 7.11665C64.3964 7.46703 64.2946 7.85766 64.2899 8.28853V10.0712C64.2899 10.611 64.3893 11.0774 64.5882 11.4703C64.7918 11.8633 65.0782 12.1664 65.4475 12.3794C65.8169 12.5925 66.2548 12.699 66.7615 12.699C67.0976 12.699 67.4054 12.6517 67.6847 12.557C67.9641 12.4623 68.2032 12.3203 68.4021 12.1309C68.6009 11.9415 68.7525 11.7095 68.8566 11.4348L71.6549 11.6195C71.5129 12.2918 71.2217 12.879 70.7813 13.3809C70.3457 13.878 69.7823 14.2663 69.091 14.5456C68.4044 14.8203 67.6114 14.9576 66.7117 14.9576Z" fill="url(#paint5_linear_3009_13943)"/>
<path d="M49.082 14.7447V0.199219H52.1076V5.66797H52.1999C52.3325 5.37441 52.5243 5.07611 52.7752 4.77308C53.0309 4.46532 53.3623 4.20964 53.7695 4.00604C54.1815 3.7977 54.6928 3.69354 55.3036 3.69354C56.0991 3.69354 56.833 3.90187 57.5053 4.31854C58.1777 4.73047 58.7151 5.3531 59.1175 6.18643C59.52 7.01503 59.7212 8.05433 59.7212 9.30433C59.7212 10.5212 59.5247 11.5487 59.1317 12.3867C58.7435 13.2201 58.2132 13.8522 57.5408 14.283C56.8732 14.7092 56.1251 14.9222 55.2965 14.9222C54.7094 14.9222 54.2099 14.8252 53.7979 14.631C53.3907 14.4369 53.0569 14.1931 52.7965 13.8995C52.5361 13.6012 52.3372 13.3005 52.1999 12.9975H52.065V14.7447H49.082ZM52.0437 9.29013C52.0437 9.9388 52.1336 10.5046 52.3136 10.9876C52.4935 11.4705 52.7539 11.8469 53.0948 12.1168C53.4357 12.382 53.85 12.5146 54.3377 12.5146C54.8301 12.5146 55.2468 12.3796 55.5877 12.1097C55.9286 11.8351 56.1867 11.4563 56.3619 10.9734C56.5418 10.4857 56.6317 9.9246 56.6317 9.29013C56.6317 8.66039 56.5442 8.10642 56.369 7.6282C56.1938 7.14998 55.9357 6.77592 55.5948 6.50604C55.2539 6.23615 54.8349 6.10121 54.3377 6.10121C53.8453 6.10121 53.4286 6.23142 53.0877 6.49183C52.7515 6.75225 52.4935 7.12157 52.3136 7.59979C52.1336 8.07801 52.0437 8.64145 52.0437 9.29013Z" fill="url(#paint6_linear_3009_13943)"/>
<path d="M30.7832 14.7445V3.8354H33.6667V5.76012H33.7946C34.0218 5.12092 34.4006 4.61665 34.9309 4.24734C35.4612 3.87802 36.0957 3.69336 36.8343 3.69336C37.5824 3.69336 38.2193 3.88039 38.7449 4.25444C39.2704 4.62376 39.6208 5.12565 39.796 5.76012H39.9096C40.1322 5.13512 40.5346 4.63559 41.117 4.26154C41.7041 3.88275 42.3978 3.69336 43.198 3.69336C44.216 3.69336 45.0422 4.0177 45.6767 4.66637C46.3159 5.31031 46.6355 6.22414 46.6355 7.40785V14.7445H43.617V8.00444C43.617 7.39838 43.456 6.94383 43.1341 6.6408C42.8121 6.33777 42.4096 6.18626 41.9267 6.18626C41.3774 6.18626 40.9489 6.36145 40.6412 6.71182C40.3334 7.05747 40.1795 7.51438 40.1795 8.08256V14.7445H37.2463V7.94052C37.2463 7.40548 37.0924 6.97934 36.7846 6.66211C36.4816 6.34487 36.0815 6.18626 35.5843 6.18626C35.2482 6.18626 34.9451 6.27148 34.6752 6.44194C34.4101 6.60766 34.1994 6.84203 34.0431 7.14506C33.8869 7.44336 33.8088 7.79374 33.8088 8.1962V14.7445H30.7832Z" fill="url(#paint7_linear_3009_13943)"/>
<path d="M25.3375 10.1001V3.83594H28.3631V14.745H25.4583V12.7635H25.3446C25.0984 13.4027 24.6889 13.9164 24.1159 14.3047C23.5478 14.6929 22.8541 14.8871 22.035 14.8871C21.3058 14.8871 20.6642 14.7214 20.1103 14.3899C19.5563 14.0585 19.123 13.5874 18.8105 12.9766C18.5028 12.3658 18.3465 11.6342 18.3418 10.782V3.83594H21.3674V10.2422C21.3721 10.8861 21.5449 11.3951 21.8858 11.7692C22.2267 12.1432 22.6837 12.3303 23.2566 12.3303C23.6212 12.3303 23.9621 12.2474 24.2793 12.0817C24.5965 11.9112 24.8522 11.6603 25.0463 11.3288C25.2452 10.9974 25.3423 10.5878 25.3375 10.1001Z" fill="url(#paint8_linear_3009_13943)"/>
<path d="M15.9181 0.199219V14.7447H12.8926V0.199219H15.9181Z" fill="url(#paint9_linear_3009_13943)"/>
<path d="M0 14.7447V0.199219H5.73864C6.84186 0.199219 7.78172 0.40992 8.55824 0.831321C9.33475 1.24799 9.92661 1.82801 10.3338 2.57138C10.7457 3.31001 10.9517 4.16229 10.9517 5.1282C10.9517 6.0941 10.7434 6.94638 10.3267 7.68501C9.91004 8.42365 9.30634 8.99893 8.51562 9.41087C7.72964 9.8228 6.77794 10.0288 5.66051 10.0288H2.00284V7.56428H5.16335C5.75521 7.56428 6.2429 7.46248 6.62642 7.25888C7.01468 7.05054 7.3035 6.76409 7.4929 6.3995C7.68703 6.03018 7.78409 5.60642 7.78409 5.1282C7.78409 4.64524 7.68703 4.22384 7.4929 3.86399C7.3035 3.49941 7.01468 3.21768 6.62642 3.01882C6.23816 2.81522 5.74574 2.71342 5.14915 2.71342H3.07528V14.7447H0Z" fill="url(#paint10_linear_3009_13943)"/>
<defs>
<linearGradient id="paint0_linear_3009_13943" x1="69.2359" y1="-13.2555" x2="61.7359" y2="23.2445" gradientUnits="userSpaceOnUse">
<stop offset="0.07" stop-color="#3147BA" stop-opacity="0"/>
<stop offset="0.260662" stop-color="#5016F3" stop-opacity="0.75"/>
<stop offset="1" stop-color="#4000F5" stop-opacity="0.9"/>
<stop offset="1" stop-color="#181EC4"/>
</linearGradient>
<linearGradient id="paint1_linear_3009_13943" x1="69.236" y1="-13.2553" x2="61.736" y2="23.2447" gradientUnits="userSpaceOnUse">
<stop offset="0.07" stop-color="#3147BA" stop-opacity="0"/>
<stop offset="0.260662" stop-color="#5016F3" stop-opacity="0.75"/>
<stop offset="1" stop-color="#4000F5" stop-opacity="0.9"/>
<stop offset="1" stop-color="#181EC4"/>
</linearGradient>
<linearGradient id="paint2_linear_3009_13943" x1="69.2356" y1="-13.2555" x2="61.7356" y2="23.2445" gradientUnits="userSpaceOnUse">
<stop offset="0.07" stop-color="#3147BA" stop-opacity="0"/>
<stop offset="0.260662" stop-color="#5016F3" stop-opacity="0.75"/>
<stop offset="1" stop-color="#4000F5" stop-opacity="0.9"/>
<stop offset="1" stop-color="#181EC4"/>
</linearGradient>
<linearGradient id="paint3_linear_3009_13943" x1="69.2356" y1="-13.2557" x2="61.7356" y2="23.2443" gradientUnits="userSpaceOnUse">
<stop offset="0.07" stop-color="#3147BA" stop-opacity="0"/>
<stop offset="0.260662" stop-color="#5016F3" stop-opacity="0.75"/>
<stop offset="1" stop-color="#4000F5" stop-opacity="0.9"/>
<stop offset="1" stop-color="#181EC4"/>
</linearGradient>
<linearGradient id="paint4_linear_3009_13943" x1="69.236" y1="-13.255" x2="61.736" y2="23.245" gradientUnits="userSpaceOnUse">
<stop offset="0.07" stop-color="#3147BA" stop-opacity="0"/>
<stop offset="0.260662" stop-color="#5016F3" stop-opacity="0.75"/>
<stop offset="1" stop-color="#4000F5" stop-opacity="0.9"/>
<stop offset="1" stop-color="#181EC4"/>
</linearGradient>
<linearGradient id="paint5_linear_3009_13943" x1="69.2359" y1="-13.2555" x2="61.7359" y2="23.2445" gradientUnits="userSpaceOnUse">
<stop offset="0.07" stop-color="#3147BA" stop-opacity="0"/>
<stop offset="0.260662" stop-color="#5016F3" stop-opacity="0.75"/>
<stop offset="1" stop-color="#4000F5" stop-opacity="0.9"/>
<stop offset="1" stop-color="#181EC4"/>
</linearGradient>
<linearGradient id="paint6_linear_3009_13943" x1="69.2358" y1="-13.2553" x2="61.7358" y2="23.2447" gradientUnits="userSpaceOnUse">
<stop offset="0.07" stop-color="#3147BA" stop-opacity="0"/>
<stop offset="0.260662" stop-color="#5016F3" stop-opacity="0.75"/>
<stop offset="1" stop-color="#4000F5" stop-opacity="0.9"/>
<stop offset="1" stop-color="#181EC4"/>
</linearGradient>
<linearGradient id="paint7_linear_3009_13943" x1="69.236" y1="-13.2555" x2="61.736" y2="23.2445" gradientUnits="userSpaceOnUse">
<stop offset="0.07" stop-color="#3147BA" stop-opacity="0"/>
<stop offset="0.260662" stop-color="#5016F3" stop-opacity="0.75"/>
<stop offset="1" stop-color="#4000F5" stop-opacity="0.9"/>
<stop offset="1" stop-color="#181EC4"/>
</linearGradient>
<linearGradient id="paint8_linear_3009_13943" x1="69.236" y1="-13.255" x2="61.736" y2="23.245" gradientUnits="userSpaceOnUse">
<stop offset="0.07" stop-color="#3147BA" stop-opacity="0"/>
<stop offset="0.260662" stop-color="#5016F3" stop-opacity="0.75"/>
<stop offset="1" stop-color="#4000F5" stop-opacity="0.9"/>
<stop offset="1" stop-color="#181EC4"/>
</linearGradient>
<linearGradient id="paint9_linear_3009_13943" x1="69.236" y1="-13.2553" x2="61.736" y2="23.2447" gradientUnits="userSpaceOnUse">
<stop offset="0.07" stop-color="#3147BA" stop-opacity="0"/>
<stop offset="0.260662" stop-color="#5016F3" stop-opacity="0.75"/>
<stop offset="1" stop-color="#4000F5" stop-opacity="0.9"/>
<stop offset="1" stop-color="#181EC4"/>
</linearGradient>
<linearGradient id="paint10_linear_3009_13943" x1="69.2358" y1="-13.2553" x2="61.7358" y2="23.2447" gradientUnits="userSpaceOnUse">
<stop offset="0.07" stop-color="#3147BA" stop-opacity="0"/>
<stop offset="0.260662" stop-color="#5016F3" stop-opacity="0.75"/>
<stop offset="1" stop-color="#4000F5" stop-opacity="0.9"/>
<stop offset="1" stop-color="#181EC4"/>
</linearGradient>
</defs>
</svg>
