<svg width="13" height="12" viewBox="0 0 13 12" fill="none" xmlns="http://www.w3.org/2000/svg">
<path fill-rule="evenodd" clip-rule="evenodd" d="M8.25 3C8.25 4.10457 7.35457 5 6.25 5C5.14543 5 4.25 4.10457 4.25 3C4.25 1.89543 5.14543 1 6.25 1C7.35457 1 8.25 1.89543 8.25 3ZM6.25 6C7.90685 6 9.25 4.65685 9.25 3C9.25 1.34315 7.90685 0 6.25 0C4.59315 0 3.25 1.34315 3.25 3C3.25 4.65685 4.59315 6 6.25 6ZM12.25 11C12.25 12 11.25 12 11.25 12H1.25C1.25 12 0.25 12 0.25 11C0.25 10 1.25 7 6.25 7C11.25 7 12.25 10 12.25 11ZM11.25 10.9965C11.2486 10.7497 11.0962 10.0104 10.4179 9.33211C9.76563 8.67985 8.5391 8 6.24999 8C3.96088 8 2.73435 8.67985 2.0821 9.33211C1.40375 10.0104 1.25142 10.7497 1.25 10.9965H11.25Z" fill="#A0AEC0"/>
</svg>
