<svg width="17" height="16" viewBox="0 0 17 16" fill="none" xmlns="http://www.w3.org/2000/svg">
<path fill-rule="evenodd" clip-rule="evenodd" d="M0.25 1.50073C0.25 1.22459 0.473858 1.00073 0.75 1.00073H2.25C2.47943 1.00073 2.67943 1.15688 2.73507 1.37946L3.14039 3.00073H14.75C14.8987 3.00073 15.0398 3.06696 15.1348 3.18141C15.2297 3.29587 15.2688 3.44668 15.2414 3.59288L13.7414 11.5929C13.6971 11.8294 13.4906 12.0007 13.25 12.0007H12.25H5.25H4.25C4.00939 12.0007 3.80291 11.8294 3.75856 11.5929L2.26131 3.60753L1.85961 2.00073H0.75C0.473858 2.00073 0.25 1.77687 0.25 1.50073ZM3.35246 4.00073L4.66496 11.0007H12.835L14.1475 4.00073H3.35246ZM5.25 12.0007C4.14543 12.0007 3.25 12.8962 3.25 14.0007C3.25 15.1053 4.14543 16.0007 5.25 16.0007C6.35457 16.0007 7.25 15.1053 7.25 14.0007C7.25 12.8962 6.35457 12.0007 5.25 12.0007ZM12.25 12.0007C11.1454 12.0007 10.25 12.8962 10.25 14.0007C10.25 15.1053 11.1454 16.0007 12.25 16.0007C13.3546 16.0007 14.25 15.1053 14.25 14.0007C14.25 12.8962 13.3546 12.0007 12.25 12.0007ZM5.25 13.0007C4.69772 13.0007 4.25 13.4484 4.25 14.0007C4.25 14.553 4.69772 15.0007 5.25 15.0007C5.80228 15.0007 6.25 14.553 6.25 14.0007C6.25 13.4484 5.80228 13.0007 5.25 13.0007ZM12.25 13.0007C11.6977 13.0007 11.25 13.4484 11.25 14.0007C11.25 14.553 11.6977 15.0007 12.25 15.0007C12.8023 15.0007 13.25 14.553 13.25 14.0007C13.25 13.4484 12.8023 13.0007 12.25 13.0007Z" fill="#A0AEC0"/>
<path fill-rule="evenodd" clip-rule="evenodd" d="M8.75 5.00073C9.02614 5.00073 9.25 5.22459 9.25 5.50073V7.00073H10.75C11.0261 7.00073 11.25 7.22459 11.25 7.50073C11.25 7.77687 11.0261 8.00073 10.75 8.00073H9.25V9.50073C9.25 9.77688 9.02614 10.0007 8.75 10.0007C8.47386 10.0007 8.25 9.77688 8.25 9.50073V8.00073H6.75C6.47386 8.00073 6.25 7.77687 6.25 7.50073C6.25 7.22459 6.47386 7.00073 6.75 7.00073H8.25V5.50073C8.25 5.22459 8.47386 5.00073 8.75 5.00073Z" fill="#A0AEC0"/>
</svg>
