<svg width="16" height="17" viewBox="0 0 16 17" fill="none" xmlns="http://www.w3.org/2000/svg">
<g id="list-stars">
<g id="Vector">
<path fill-rule="evenodd" clip-rule="evenodd" d="M5 12C5 11.7239 5.22386 11.5 5.5 11.5H14.5C14.7761 11.5 15 11.7239 15 12C15 12.2761 14.7761 12.5 14.5 12.5H5.5C5.22386 12.5 5 12.2761 5 12Z" fill="#A0AEC0"/>
<path fill-rule="evenodd" clip-rule="evenodd" d="M5 8C5 7.72386 5.22386 7.5 5.5 7.5H14.5C14.7761 7.5 15 7.72386 15 8C15 8.27614 14.7761 8.5 14.5 8.5H5.5C5.22386 8.5 5 8.27614 5 8Z" fill="#A0AEC0"/>
<path fill-rule="evenodd" clip-rule="evenodd" d="M5 4C5 3.72386 5.22386 3.5 5.5 3.5H14.5C14.7761 3.5 15 3.72386 15 4C15 4.27614 14.7761 4.5 14.5 4.5H5.5C5.22386 4.5 5 4.27614 5 4Z" fill="#A0AEC0"/>
</g>
<g id="Vector_2">
<path d="M2.24158 2.69355C2.32012 2.43548 2.67988 2.43548 2.75842 2.69355L2.91999 3.2244C2.95501 3.33948 3.05979 3.41795 3.17841 3.41795H3.72899C3.98772 3.41795 4.09879 3.75135 3.89319 3.91083L3.42479 4.27415C3.33471 4.34402 3.2971 4.46351 3.33057 4.57347L3.50391 5.14303C3.58166 5.3985 3.29055 5.60468 3.08128 5.44235L2.6642 5.11884C2.56726 5.04364 2.43274 5.04364 2.3358 5.11884L1.91872 5.44235C1.70945 5.60468 1.41834 5.3985 1.49609 5.14303L1.66943 4.57347C1.7029 4.46351 1.66529 4.34402 1.57521 4.27415L1.10681 3.91083C0.901213 3.75135 1.01228 3.41795 1.27101 3.41795H1.82159C1.94021 3.41795 2.04499 3.33947 2.08002 3.2244L2.24158 2.69355Z" fill="#A0AEC0"/>
<path d="M2.24158 6.69355C2.32012 6.43548 2.67988 6.43548 2.75842 6.69355L2.91999 7.2244C2.95501 7.33948 3.05979 7.41795 3.17841 7.41795H3.72899C3.98772 7.41795 4.09879 7.75135 3.89319 7.91083L3.42479 8.27415C3.33471 8.34402 3.2971 8.46351 3.33057 8.57347L3.50391 9.14303C3.58166 9.3985 3.29055 9.60468 3.08128 9.44235L2.6642 9.11884C2.56726 9.04364 2.43274 9.04364 2.3358 9.11884L1.91872 9.44235C1.70945 9.60468 1.41834 9.3985 1.49609 9.14303L1.66943 8.57347C1.7029 8.46351 1.66529 8.34402 1.57521 8.27415L1.10681 7.91083C0.901213 7.75135 1.01228 7.41795 1.27101 7.41795H1.82159C1.94021 7.41795 2.04499 7.33948 2.08002 7.2244L2.24158 6.69355Z" fill="#A0AEC0"/>
<path d="M2.24158 10.6936C2.32012 10.4355 2.67988 10.4355 2.75842 10.6936L2.91999 11.2244C2.95501 11.3395 3.05979 11.418 3.17841 11.418H3.72899C3.98772 11.418 4.09879 11.7514 3.89319 11.9108L3.42479 12.2741C3.33471 12.344 3.2971 12.4635 3.33057 12.5735L3.50391 13.143C3.58166 13.3985 3.29055 13.6047 3.08128 13.4424L2.6642 13.1188C2.56726 13.0436 2.43274 13.0436 2.3358 13.1188L1.91872 13.4424C1.70945 13.6047 1.41834 13.3985 1.49609 13.143L1.66943 12.5735C1.7029 12.4635 1.66529 12.344 1.57521 12.2741L1.10681 11.9108C0.901213 11.7514 1.01228 11.418 1.27101 11.418H1.82159C1.94021 11.418 2.04499 11.3395 2.08002 11.2244L2.24158 10.6936Z" fill="#A0AEC0"/>
</g>
</g>
</svg>
