<svg width="100" height="36" viewBox="0 0 100 36" fill="none" xmlns="http://www.w3.org/2000/svg">
<rect width="100" height="36" rx="6" fill="#4C6FFF"/>
<mask id="mask0_3039_1010" style="mask-type:alpha" maskUnits="userSpaceOnUse" x="20" y="12" width="12" height="12">
<path fill-rule="evenodd" clip-rule="evenodd" d="M26 12C26.6627 12 27.2 12.5373 27.2 13.2V16.8H30.8C31.4627 16.8 32 17.3373 32 18C32 18.6627 31.4627 19.2 30.8 19.2H27.2V22.8C27.2 23.4627 26.6627 24 26 24C25.3373 24 24.8 23.4627 24.8 22.8V19.2H21.2C20.5373 19.2 20 18.6627 20 18C20 17.3373 20.5373 16.8 21.2 16.8H24.8V13.2C24.8 12.5373 25.3373 12 26 12Z" fill="black"/>
</mask>
<g mask="url(#mask0_3039_1010)">
<rect x="20" y="12" width="12" height="12" fill="white"/>
</g>
<path d="M48.331 16.2173H46.7372C46.6918 15.956 46.608 15.7244 46.4858 15.5227C46.3636 15.3182 46.2116 15.1449 46.0298 15.0028C45.848 14.8608 45.6406 14.7543 45.4077 14.6832C45.1776 14.6094 44.929 14.5724 44.6619 14.5724C44.1875 14.5724 43.767 14.6918 43.4006 14.9304C43.0341 15.1662 42.7472 15.5128 42.5398 15.9702C42.3324 16.4247 42.2287 16.9801 42.2287 17.6364C42.2287 18.304 42.3324 18.8665 42.5398 19.3239C42.75 19.7784 43.0369 20.1222 43.4006 20.3551C43.767 20.5852 44.1861 20.7003 44.6577 20.7003C44.919 20.7003 45.1634 20.6662 45.3906 20.598C45.6207 20.527 45.8267 20.4233 46.0085 20.2869C46.1932 20.1506 46.348 19.983 46.473 19.7841C46.6009 19.5852 46.6889 19.358 46.7372 19.1023L48.331 19.1108C48.2713 19.5256 48.142 19.9148 47.9432 20.2784C47.7472 20.642 47.4901 20.9631 47.1719 21.2415C46.8537 21.517 46.4815 21.733 46.0554 21.8892C45.6293 22.0426 45.1563 22.1193 44.6364 22.1193C43.8693 22.1193 43.1847 21.9418 42.5824 21.5866C41.9801 21.2315 41.5057 20.7188 41.1591 20.0483C40.8125 19.3778 40.6392 18.5739 40.6392 17.6364C40.6392 16.696 40.8139 15.892 41.1634 15.2244C41.5128 14.554 41.9886 14.0412 42.5909 13.6861C43.1932 13.331 43.875 13.1534 44.6364 13.1534C45.1222 13.1534 45.5739 13.2216 45.9915 13.358C46.4091 13.4943 46.7813 13.6946 47.108 13.9588C47.4347 14.2202 47.7031 14.5412 47.9134 14.9219C48.1264 15.2997 48.2656 15.7315 48.331 16.2173ZM49.7106 22V15.4545H51.2063V16.5455H51.2745C51.3938 16.1676 51.5984 15.8764 51.8881 15.6719C52.1808 15.4645 52.5146 15.3608 52.8896 15.3608C52.9748 15.3608 53.07 15.3651 53.1751 15.3736C53.283 15.3793 53.3725 15.3892 53.4435 15.4034V16.8224C53.3782 16.7997 53.2745 16.7798 53.1325 16.7628C52.9933 16.7429 52.8583 16.733 52.7276 16.733C52.4464 16.733 52.1935 16.794 51.9691 16.9162C51.7475 17.0355 51.5728 17.2017 51.445 17.4148C51.3171 17.6278 51.2532 17.8736 51.2532 18.152V22H49.7106ZM57.0966 22.1278C56.4403 22.1278 55.8736 21.9915 55.3963 21.7188C54.9219 21.4432 54.5568 21.054 54.3011 20.5511C54.0455 20.0455 53.9176 19.4503 53.9176 18.7656C53.9176 18.0923 54.0455 17.5014 54.3011 16.9929C54.5597 16.4815 54.9205 16.0838 55.3835 15.7997C55.8466 15.5128 56.3906 15.3693 57.0156 15.3693C57.419 15.3693 57.7997 15.4347 58.1577 15.5653C58.5185 15.6932 58.8366 15.892 59.1122 16.1619C59.3906 16.4318 59.6094 16.7756 59.7685 17.1932C59.9276 17.608 60.0071 18.1023 60.0071 18.6761V19.1491H54.642V18.1094H58.5284C58.5256 17.8139 58.4616 17.5511 58.3366 17.321C58.2116 17.0881 58.0369 16.9048 57.8125 16.7713C57.5909 16.6378 57.3324 16.571 57.0369 16.571C56.7216 16.571 56.4446 16.6477 56.206 16.8011C55.9673 16.9517 55.7813 17.1506 55.6477 17.3977C55.517 17.642 55.4503 17.9105 55.4474 18.2031V19.1108C55.4474 19.4915 55.517 19.8182 55.6562 20.0909C55.7955 20.3608 55.9901 20.5682 56.2401 20.7131C56.4901 20.8551 56.7827 20.9261 57.1179 20.9261C57.3423 20.9261 57.5455 20.8949 57.7273 20.8324C57.9091 20.767 58.0668 20.6719 58.2003 20.5469C58.3338 20.4219 58.4347 20.267 58.5028 20.0824L59.9432 20.2443C59.8523 20.625 59.679 20.9574 59.4233 21.2415C59.1705 21.5227 58.8466 21.7415 58.4517 21.8977C58.0568 22.0511 57.6051 22.1278 57.0966 22.1278ZM63.1957 22.1321C62.7809 22.1321 62.4073 22.0582 62.0749 21.9105C61.7454 21.7599 61.484 21.5384 61.2908 21.2457C61.1005 20.9531 61.0053 20.5923 61.0053 20.1634C61.0053 19.794 61.0735 19.4886 61.2099 19.2472C61.3462 19.0057 61.5323 18.8125 61.7681 18.6676C62.0039 18.5227 62.2695 18.4134 62.565 18.3395C62.8633 18.2628 63.1715 18.2074 63.4897 18.1733C63.8732 18.1335 64.1843 18.098 64.4229 18.0668C64.6616 18.0327 64.8349 17.9815 64.9428 17.9134C65.0536 17.8423 65.109 17.733 65.109 17.5852V17.5597C65.109 17.2386 65.0138 16.9901 64.8235 16.8139C64.6332 16.6378 64.359 16.5497 64.0011 16.5497C63.6232 16.5497 63.3235 16.6321 63.1019 16.7969C62.8832 16.9616 62.7354 17.1562 62.6587 17.3807L61.2184 17.1761C61.332 16.7784 61.5195 16.446 61.7809 16.179C62.0423 15.9091 62.3619 15.7074 62.7397 15.5739C63.1175 15.4375 63.5352 15.3693 63.9925 15.3693C64.3079 15.3693 64.6218 15.4062 64.9343 15.4801C65.2468 15.554 65.5323 15.6761 65.7908 15.8466C66.0494 16.0142 66.2567 16.2429 66.413 16.5327C66.5721 16.8224 66.6516 17.1847 66.6516 17.6193V22H65.1687V21.1009H65.1175C65.0238 21.2827 64.8917 21.4531 64.7212 21.6122C64.5536 21.7685 64.342 21.8949 64.0863 21.9915C63.8335 22.0852 63.5366 22.1321 63.1957 22.1321ZM63.5962 20.9986C63.9059 20.9986 64.1744 20.9375 64.4016 20.8153C64.6289 20.6903 64.8036 20.5256 64.9258 20.321C65.0508 20.1165 65.1133 19.8935 65.1133 19.652V18.8807C65.065 18.9205 64.9826 18.9574 64.8661 18.9915C64.7525 19.0256 64.6246 19.0554 64.4826 19.081C64.3406 19.1065 64.1999 19.1293 64.0607 19.1491C63.9215 19.169 63.8008 19.1861 63.6985 19.2003C63.4684 19.2315 63.2624 19.2827 63.0806 19.3537C62.8988 19.4247 62.7553 19.5241 62.6502 19.652C62.5451 19.777 62.4925 19.9389 62.4925 20.1378C62.4925 20.4219 62.5962 20.6364 62.8036 20.7812C63.011 20.9261 63.2752 20.9986 63.5962 20.9986ZM71.4712 15.4545V16.6477H67.7085V15.4545H71.4712ZM68.6374 13.8864H70.18V20.0312C70.18 20.2386 70.2113 20.3977 70.2738 20.5085C70.3391 20.6165 70.4244 20.6903 70.5295 20.7301C70.6346 20.7699 70.7511 20.7898 70.8789 20.7898C70.9755 20.7898 71.0636 20.7827 71.1431 20.7685C71.2255 20.7543 71.288 20.7415 71.3306 20.7301L71.5906 21.9361C71.5082 21.9645 71.3903 21.9957 71.2369 22.0298C71.0863 22.0639 70.9016 22.0838 70.6829 22.0895C70.2965 22.1009 69.9485 22.0426 69.6388 21.9148C69.3292 21.7841 69.0835 21.5824 68.9016 21.3097C68.7227 21.0369 68.6346 20.696 68.6374 20.2869V13.8864ZM75.5888 22.1278C74.9325 22.1278 74.3658 21.9915 73.8885 21.7188C73.4141 21.4432 73.049 21.054 72.7933 20.5511C72.5376 20.0455 72.4098 19.4503 72.4098 18.7656C72.4098 18.0923 72.5376 17.5014 72.7933 16.9929C73.0518 16.4815 73.4126 16.0838 73.8757 15.7997C74.3388 15.5128 74.8828 15.3693 75.5078 15.3693C75.9112 15.3693 76.2919 15.4347 76.6499 15.5653C77.0107 15.6932 77.3288 15.892 77.6044 16.1619C77.8828 16.4318 78.1016 16.7756 78.2607 17.1932C78.4197 17.608 78.4993 18.1023 78.4993 18.6761V19.1491H73.1342V18.1094H77.0206C77.0178 17.8139 76.9538 17.5511 76.8288 17.321C76.7038 17.0881 76.5291 16.9048 76.3047 16.7713C76.0831 16.6378 75.8246 16.571 75.5291 16.571C75.2138 16.571 74.9368 16.6477 74.6982 16.8011C74.4595 16.9517 74.2734 17.1506 74.1399 17.3977C74.0092 17.642 73.9425 17.9105 73.9396 18.2031V19.1108C73.9396 19.4915 74.0092 19.8182 74.1484 20.0909C74.2876 20.3608 74.4822 20.5682 74.7322 20.7131C74.9822 20.8551 75.2749 20.9261 75.6101 20.9261C75.8345 20.9261 76.0376 20.8949 76.2195 20.8324C76.4013 20.767 76.5589 20.6719 76.6925 20.5469C76.826 20.4219 76.9268 20.267 76.995 20.0824L78.4354 20.2443C78.3445 20.625 78.1712 20.9574 77.9155 21.2415C77.6626 21.5227 77.3388 21.7415 76.9439 21.8977C76.549 22.0511 76.0973 22.1278 75.5888 22.1278Z" fill="white"/>
</svg>
