<svg width="17" height="16" viewBox="0 0 17 16" fill="none" xmlns="http://www.w3.org/2000/svg">
<path fill-rule="evenodd" clip-rule="evenodd" d="M0.25 2.50073C0.25 2.22459 0.473858 2.00073 0.75 2.00073H2.25C2.47943 2.00073 2.67943 2.15688 2.73507 2.37946L3.14039 4.00073H14.75C14.904 4.00073 15.0493 4.07167 15.1441 4.19303C15.2389 4.31438 15.2724 4.47263 15.2351 4.622L13.7351 10.622C13.6794 10.8446 13.4794 11.0007 13.25 11.0007H4.25C4.02057 11.0007 3.82057 10.8446 3.76493 10.622L1.85961 3.00073H0.75C0.473858 3.00073 0.25 2.77687 0.25 2.50073ZM3.39039 5.00073L3.89039 7.00073H5.25V5.00073H3.39039ZM6.25 5.00073V7.00073H8.25V5.00073H6.25ZM9.25 5.00073V7.00073H11.25V5.00073H9.25ZM12.25 5.00073V7.00073H13.6096L14.1096 5.00073H12.25ZM13.3596 8.00073H12.25V10.0007H12.8596L13.3596 8.00073ZM11.25 8.00073H9.25V10.0007H11.25V8.00073ZM8.25 8.00073H6.25V10.0007H8.25V8.00073ZM5.25 8.00073H4.14039L4.64039 10.0007H5.25V8.00073ZM5.25 13.0007C4.69772 13.0007 4.25 13.4484 4.25 14.0007C4.25 14.553 4.69772 15.0007 5.25 15.0007C5.80228 15.0007 6.25 14.553 6.25 14.0007C6.25 13.4484 5.80228 13.0007 5.25 13.0007ZM3.25 14.0007C3.25 12.8962 4.14543 12.0007 5.25 12.0007C6.35457 12.0007 7.25 12.8962 7.25 14.0007C7.25 15.1053 6.35457 16.0007 5.25 16.0007C4.14543 16.0007 3.25 15.1053 3.25 14.0007ZM12.25 13.0007C11.6977 13.0007 11.25 13.4484 11.25 14.0007C11.25 14.553 11.6977 15.0007 12.25 15.0007C12.8023 15.0007 13.25 14.553 13.25 14.0007C13.25 13.4484 12.8023 13.0007 12.25 13.0007ZM10.25 14.0007C10.25 12.8962 11.1454 12.0007 12.25 12.0007C13.3546 12.0007 14.25 12.8962 14.25 14.0007C14.25 15.1053 13.3546 16.0007 12.25 16.0007C11.1454 16.0007 10.25 15.1053 10.25 14.0007Z" fill="white"/>
</svg>
