<svg width="17" height="17" viewBox="0 0 17 17" fill="none" xmlns="http://www.w3.org/2000/svg">
<path fill-rule="evenodd" clip-rule="evenodd" d="M0.25 2.00073C0.25 1.72459 0.473858 1.50073 0.75 1.50073H2.25C2.47943 1.50073 2.67943 1.65688 2.73507 1.87946L3.14039 3.50073H14.75C14.8998 3.50073 15.0417 3.56789 15.1367 3.68374C15.2316 3.79958 15.2697 3.9519 15.2403 4.09879L14.2403 9.09879C14.1954 9.32331 14.0037 9.48864 13.775 9.5001L4.37822 9.97142L4.66496 11.5007H13.25C13.5261 11.5007 13.75 11.7246 13.75 12.0007C13.75 12.2769 13.5261 12.5007 13.25 12.5007H12.25H5.25H4.25C4.00939 12.5007 3.80291 12.3294 3.75856 12.0929L2.26131 4.10753L1.85961 2.50073H0.75C0.473858 2.50073 0.25 2.27687 0.25 2.00073ZM3.35246 4.50073L4.19223 8.97949L13.3361 8.52086L14.1401 4.50073H3.35246ZM5.25 12.5007C4.14543 12.5007 3.25 13.3962 3.25 14.5007C3.25 15.6053 4.14543 16.5007 5.25 16.5007C6.35457 16.5007 7.25 15.6053 7.25 14.5007C7.25 13.3962 6.35457 12.5007 5.25 12.5007ZM12.25 12.5007C11.1454 12.5007 10.25 13.3962 10.25 14.5007C10.25 15.6053 11.1454 16.5007 12.25 16.5007C13.3546 16.5007 14.25 15.6053 14.25 14.5007C14.25 13.3962 13.3546 12.5007 12.25 12.5007ZM5.25 13.5007C4.69772 13.5007 4.25 13.9484 4.25 14.5007C4.25 15.053 4.69772 15.5007 5.25 15.5007C5.80228 15.5007 6.25 15.053 6.25 14.5007C6.25 13.9484 5.80228 13.5007 5.25 13.5007ZM12.25 13.5007C11.6977 13.5007 11.25 13.9484 11.25 14.5007C11.25 15.053 11.6977 15.5007 12.25 15.5007C12.8023 15.5007 13.25 15.053 13.25 14.5007C13.25 13.9484 12.8023 13.5007 12.25 13.5007Z" fill="white"/>
</svg>
