<svg width="17" height="16" viewBox="0 0 17 16" fill="none" xmlns="http://www.w3.org/2000/svg">
<path d="M10.0784 4C9.28278 4 8.51972 3.68393 7.95711 3.12132L7.12868 2.29289C6.94114 2.10536 6.68679 2 6.42157 2H2.75C2.20402 2 1.76024 2.43755 1.75017 2.98112L1.79649 4H0.795455L0.75 3C0.75 1.89543 1.64543 1 2.75 1H6.42157C6.95201 1 7.46071 1.21071 7.83579 1.58579L8.66421 2.41421C9.03929 2.78929 9.54799 3 10.0784 3V4Z" fill="#A0AEC0"/>
<path fill-rule="evenodd" clip-rule="evenodd" d="M14.0599 4H2.44004C1.85201 4 1.39091 4.50492 1.44415 5.09054L2.08051 12.0905C2.12734 12.6056 2.5592 13 3.07641 13H13.4235C13.9407 13 14.3726 12.6056 14.4194 12.0905L15.0558 5.09054C15.109 4.50492 14.6479 4 14.0599 4ZM2.44004 3C1.26398 3 0.341781 4.00984 0.448257 5.18107L1.08462 12.1811C1.17827 13.2112 2.042 14 3.07641 14H13.4235C14.458 14 15.3217 13.2112 15.4153 12.1811L16.0517 5.18107C16.1582 4.00984 15.236 3 14.0599 3H2.44004Z" fill="#A0AEC0"/>
</svg>
